<svg xmlns="http://www.w3.org/2000/svg" viewBox="0 0 24 24" fill="currentColor" role="img" aria-label="Discord">
  <path d="M20.317 4.369A19.79 19.79 0 0 0 16.558 3.2a.07.07 0 0 0-.074.035c-.16.285-.338.657-.462.95a18.27 18.27 0 0 0-5.487 0 12.6 12.6 0 0 0-.47-.95.072.072 0 0 0-.074-.035 19.74 19.74 0 0 0-3.76 1.169.066.066 0 0 0-.03.027C2.27 7.99 1.6 11.51 1.93 14.99a.08.08 0 0 0 .031.055 19.9 19.9 0 0 0 5.993 3.03.077.077 0 0 0 .084-.028c.462-.63.873-1.295 1.226-1.994a.076.076 0 0 0-.041-.105 13.1 13.1 0 0 1-1.872-.892.077.077 0 0 1-.008-.128c.126-.094.252-.192.372-.291a.074.074 0 0 1 .077-.01c3.928 1.793 8.18 1.793 12.061 0a.074.074 0 0 1 .078.009c.12.099.246.198.373.292a.077.077 0 0 1-.006.127c-.598.349-1.22.645-1.873.892a.076.076 0 0 0-.04.106c.36.698.772 1.362 1.225 1.993a.076.076 0 0 0 .084.028 19.84 19.84 0 0 0 6.002-3.03.077.077 0 0 0 .032-.054c.5-5.177-.838-9.674-3.549-13.66a.06.06 0 0 0-.031-.028ZM8.02 12.876c-1.183 0-2.157-1.085-2.157-2.419 0-1.333.955-2.419 2.157-2.419 1.21 0 2.176 1.096 2.157 2.42 0 1.333-.956 2.418-2.157 2.418Zm7.975 0c-1.183 0-2.157-1.085-2.157-2.419 0-1.333.955-2.419 2.157-2.419 1.21 0 2.176 1.096 2.157 2.42 0 1.333-.946 2.418-2.157 2.418Z"></path>
</svg>